<svg xmlns="http://www.w3.org/2000/svg" xmlns:xlink="http://www.w3.org/1999/xlink" version="1.1" x="0px" y="0px" viewBox="0 0 48 60" enable-background="new 0 0 48 48" xml:space="preserve"><g><path d="M37.3,19.5L37.3,19.5l0-6.2C37.2,5.9,31.3,0,24,0S10.8,5.9,10.8,13.2v6.2h0c-1.8,0-3.2,1.4-3.2,3.2v22.1   c0,1.8,1.4,3.2,3.2,3.2h26.5c1.8,0,3.2-1.4,3.2-3.2V22.7C40.4,20.9,39,19.5,37.3,19.5z M27,39.6h-6l0.9-5.5   c-0.8-0.6-1.3-1.6-1.3-2.7c0-1.9,1.6-3.5,3.5-3.5s3.5,1.6,3.5,3.5c0,1.1-0.5,2.1-1.3,2.7L27,39.6z M33,19.5H15v-6.2c0-4.9,4-9,9-9   c4.9,0,9,4,9,9V19.5z"/></g></svg>